<svg xmlns="http://www.w3.org/2000/svg" xmlns:xlink="http://www.w3.org/1999/xlink" width="134" height="134" viewBox="0 0 134 134">
  <defs>
    <clipPath id="clip-path">
      <rect id="Retângulo_414" data-name="Retângulo 414" width="67.039" height="67" transform="translate(0 0)" fill="#fff"/>
    </clipPath>
  </defs>
  <g id="Grupo_2452" data-name="Grupo 2452" transform="translate(-285 -3321)">
    <g id="Grupo_2448" data-name="Grupo 2448" transform="translate(138 2455)">
      <circle id="Elipse_12" data-name="Elipse 12" cx="67" cy="67" r="67" transform="translate(147 866)" fill="#513fa4"/>
    </g>
    <g id="Grupo_2450" data-name="Grupo 2450" transform="translate(318 3354.999)">
      <g id="Grupo_2449" data-name="Grupo 2449" transform="translate(0 0.001)" clip-path="url(#clip-path)">
        <path id="Caminho_415" data-name="Caminho 415" d="M67.01,17.892a12.924,12.924,0,0,0-13.2-12.755c-.716,0-1.433,0-2.23,0,0-.811,0-1.567,0-2.324a2.625,2.625,0,1,0-5.233.031c0,.737,0,1.474,0,2.251H20.678c0-.789.005-1.547,0-2.305a2.622,2.622,0,1,0-5.233.011c0,.757,0,1.514,0,2.4-1.2,0-2.336-.065-3.459.011A12.889,12.889,0,0,0,.118,16.381,2.043,2.043,0,0,1,0,16.742v38.61c.1.508.2,1.019.312,1.524a12.952,12.952,0,0,0,11.1,10.011,2.138,2.138,0,0,1,.365.113H55.243c.614-.126,1.232-.235,1.842-.379A12.866,12.866,0,0,0,67.01,54.272q.056-18.19,0-36.38m-5.221,8.669q0,13.609,0,27.219a7.71,7.71,0,0,1-7.959,7.977q-20.32.015-40.64,0a7.71,7.71,0,0,1-7.953-7.982q0-13.609,0-27.219v-.719H61.789Zm-.066-6.019H5.339c-.912-5.71,2.34-10.982,10.068-10.11.012.2.034.4.035.611,0,1.461-.008,2.923,0,4.384a2.613,2.613,0,1,0,5.226.018c.02-1.656,0-3.313,0-5.021h25.67c0,1.73-.015,3.408.005,5.086a2.572,2.572,0,0,0,1.756,2.436,2.436,2.436,0,0,0,2.824-.791,3.645,3.645,0,0,0,.619-1.8c.084-1.629.028-3.264.028-4.89,6.2-.894,11.043,2.761,10.142,10.071" transform="translate(0 0)" fill="#fff"/>
        <path id="Caminho_416" data-name="Caminho 416" d="M78.8,279.864c.85,0,1.7-.015,2.549,0a2.609,2.609,0,0,1,.058,5.216c-1.764.039-3.529.036-5.293,0a2.61,2.61,0,0,1,.072-5.219c.871-.016,1.743,0,2.614,0" transform="translate(-60.696 -230.928)" fill="#fff"/>
        <path id="Caminho_417" data-name="Caminho 417" d="M255.613,279.864c.85,0,1.7-.015,2.548,0a2.61,2.61,0,0,1,.02,5.22q-2.613.045-5.228,0a2.61,2.61,0,0,1,.045-5.22c.871-.017,1.742,0,2.614,0" transform="translate(-206.607 -230.929)" fill="#fff"/>
        <path id="Caminho_418" data-name="Caminho 418" d="M255.549,196.77c-.85,0-1.7.016-2.549,0a2.612,2.612,0,1,1,.017-5.225q2.548-.027,5.1,0a2.614,2.614,0,1,1-.017,5.227c-.849.015-1.7,0-2.549,0" transform="translate(-206.607 -158.041)" fill="#fff"/>
        <path id="Caminho_419" data-name="Caminho 419" d="M78.774,191.555c.85,0,1.7-.014,2.549,0a2.611,2.611,0,0,1,.048,5.221q-2.613.046-5.228,0a2.61,2.61,0,0,1,.017-5.221c.871-.018,1.742,0,2.614,0" transform="translate(-60.693 -158.059)" fill="#fff"/>
        <path id="Caminho_420" data-name="Caminho 420" d="M167.1,191.555c.85,0,1.7-.015,2.549,0a2.611,2.611,0,0,1,.018,5.221q-2.613.042-5.228,0a2.61,2.61,0,0,1,.047-5.221c.871-.017,1.743,0,2.614,0" transform="translate(-133.565 -158.059)" fill="#fff"/>
        <path id="Caminho_421" data-name="Caminho 421" d="M167.069,279.864c.85,0,1.7-.012,2.548,0a2.612,2.612,0,1,1,.017,5.224q-2.581.038-5.162,0a2.612,2.612,0,1,1,.048-5.223c.849-.014,1.7,0,2.548,0" transform="translate(-133.565 -230.929)" fill="#fff"/>
      </g>
    </g>
  </g>
</svg>
