<svg id="icon-tiktok" xmlns="http://www.w3.org/2000/svg" width="41.735" height="47.503" viewBox="0 0 41.735 47.503">
  <path d="M73.135,12.284A11.969,11.969,0,0,1,65.9,9.867a12,12,0,0,1-4.55-7.232A12.059,12.059,0,0,1,61.122.39H53.366V21.584l-.009,11.609a7.031,7.031,0,1,1-4.823-6.662V18.656A15.263,15.263,0,0,0,46.3,18.49a14.873,14.873,0,0,0-11.176,5,14.575,14.575,0,0,0,.658,20.1,15.132,15.132,0,0,0,1.4,1.224A14.874,14.874,0,0,0,46.3,47.893a15.263,15.263,0,0,0,2.237-.164,14.824,14.824,0,0,0,8.281-4.142,14.521,14.521,0,0,0,4.356-10.334l-.04-17.336a19.594,19.594,0,0,0,4.356,2.54A19.606,19.606,0,0,0,73.158,20V12.282s-.02,0-.022,0Z" transform="translate(-31.423 -0.39)"/>
</svg>
