<svg xmlns="http://www.w3.org/2000/svg" xmlns:xlink="http://www.w3.org/1999/xlink" width="130" height="130" viewBox="0 0 130 130">
  <defs>
    <clipPath id="clip-path">
      <rect id="Ret창ngulo_460" data-name="Ret창ngulo 460" width="74.703" height="68.582" fill="#fff" stroke="#fff" stroke-width="0.5"/>
    </clipPath>
  </defs>
  <g id="Grupo_2594" data-name="Grupo 2594" transform="translate(15090 -8058)">
    <path id="Prancheta_1_c처pia_6-100" data-name="Prancheta 1 c처pia 6-100" d="M65,0A65,65,0,1,1,0,65,65,65,0,0,1,65,0Z" transform="translate(-15090 8058)" fill="#ff8e8d"/>
    <g id="Grupo_2589" data-name="Grupo 2589" transform="translate(-15062 8089)">
      <g id="Grupo_2580" data-name="Grupo 2580" clip-path="url(#clip-path)">
        <path id="Caminho_1482" data-name="Caminho 1482" d="M0,113.169a1.9,1.9,0,0,1,1.97-1.035c1.235.056,2.475.006,3.713.017a1.463,1.463,0,1,1,0,2.912c-1.238.012-2.478-.038-3.713.017A1.907,1.907,0,0,1,0,114.044Z" transform="translate(0 -90.264)" fill="#fff" stroke="#fff" stroke-width="0.5"/>
        <path id="Caminho_1483" data-name="Caminho 1483" d="M139.189,113.52a1.468,1.468,0,0,1,2.537-.885c.956.934,1.92,1.862,2.828,2.841.393.423.6.36.957-.021.814-.869,1.674-1.693,2.518-2.534,1.051-1.047,1.7-1.041,2.77.023.826.824,1.67,1.63,2.467,2.481.37.395.6.477,1.008.027.836-.913,1.737-1.767,2.618-2.639.8-.795,1.65-.869,2.3-.215a1.486,1.486,0,0,1-.2,2.245q-2,2.023-4.021,4.02a1.487,1.487,0,0,1-2.405-.022c-.885-.868-1.778-1.729-2.622-2.636-.395-.424-.629-.5-1.062-.026-.831.917-1.734,1.77-2.618,2.639a1.5,1.5,0,0,1-2.458.017c-1.348-1.333-2.682-2.68-4.024-4.018a1.708,1.708,0,0,1-.593-1.3" transform="translate(-112.047 -90.273)" fill="#fff" stroke="#fff" stroke-width="0.5"/>
        <path id="Caminho_1484" data-name="Caminho 1484" d="M349.344,115.107c-.679,0-1.359.01-2.038,0a1.472,1.472,0,0,1-1.59-1.437,1.456,1.456,0,0,1,1.549-1.474q2.11-.024,4.221,0A1.451,1.451,0,0,1,353,113.627a1.476,1.476,0,0,1-1.549,1.479h-2.111" transform="translate(-278.3 -90.306)" fill="#fff" stroke="#fff" stroke-width="0.5"/>
        <path id="Caminho_1485" data-name="Caminho 1485" d="M337.973,55.153a1.532,1.532,0,0,1-1.653-1.088,1.3,1.3,0,0,1,.68-1.6q2.253-.91,4.563-1.672a1.351,1.351,0,0,1,1.566.781,1.332,1.332,0,0,1-.354,1.708,35.685,35.685,0,0,1-4.8,1.872" transform="translate(-270.691 -40.844)" fill="#fff" stroke="#fff" stroke-width="0.5"/>
        <path id="Caminho_1486" data-name="Caminho 1486" d="M337.853,166.049a5.144,5.144,0,0,1,.5.136c1.253.447,2.508.89,3.755,1.355a1.493,1.493,0,0,1,1.056,1.993,1.512,1.512,0,0,1-2.078.744c-1.3-.466-2.6-.931-3.882-1.431a1.388,1.388,0,0,1-.928-1.615,1.47,1.47,0,0,1,1.575-1.182" transform="translate(-270.677 -133.669)" fill="#fff" stroke="#fff" stroke-width="0.5"/>
        <path id="Caminho_1487" data-name="Caminho 1487" d="M16.355,55.332a1.685,1.685,0,0,1-.741-.17Q13.8,54.51,12,53.847a1.475,1.475,0,1,1,.981-2.75c1.322.472,2.644.941,3.949,1.456A1.369,1.369,0,0,1,17.8,54.2a1.424,1.424,0,0,1-1.441,1.134" transform="translate(-8.705 -41.026)" fill="#fff" stroke="#fff" stroke-width="0.5"/>
        <path id="Caminho_1488" data-name="Caminho 1488" d="M16.388,166.037a1.4,1.4,0,0,1,1.4,1.044,1.333,1.333,0,0,1-.7,1.66q-2.22.9-4.5,1.648a1.408,1.408,0,0,1-1.658-.867,1.366,1.366,0,0,1,.6-1.763c1.52-.622,3.08-1.147,4.625-1.707a.773.773,0,0,1,.217-.015" transform="translate(-8.724 -133.659)" fill="#fff" stroke="#fff" stroke-width="0.5"/>
        <path id="Caminho_1489" data-name="Caminho 1489" d="M187,1.423a1.456,1.456,0,1,1-2.91.063A1.456,1.456,0,0,1,187,1.423" transform="translate(-148.191 0)" fill="#fff" stroke="#fff" stroke-width="0.5"/>
        <path id="Caminho_1490" data-name="Caminho 1490" d="M103.077,5.482a6.246,6.246,0,0,0-1.254-.356,1.385,1.385,0,0,0-1.546,1.035,1.43,1.43,0,0,0,.782,1.7,8.989,8.989,0,0,0,.889.32,20.427,20.427,0,0,1,5.007,35.942,10.33,10.33,0,0,0-4.449,7.689c-.036.408-.183.456-.523.453-1.6-.013-3.21-.028-4.814.007-.481.011-.547-.156-.542-.577.022-1.823.01-3.647.009-5.471,0-1.872.013-3.745-.007-5.617a1.451,1.451,0,0,0-2.859-.38,3.461,3.461,0,0,0-.049.8q0,5.325,0,10.65c0,.3.1.611-.438.6-1.653-.038-3.307-.023-4.96-.006-.347,0-.451-.091-.456-.443a8.147,8.147,0,0,0-.358-2.148A11.207,11.207,0,0,0,82.983,43.8a20.432,20.432,0,0,1-1.119-31.889A19.677,19.677,0,0,1,88.8,8.021a1.608,1.608,0,0,0,1.28-1.155c.278-1.233-.777-2.058-2.107-1.649C74.153,9.465,67.639,25.927,74.718,38.705A23,23,0,0,0,81.6,46.414a7.342,7.342,0,0,1,3.377,6.622c-.077,2.137-.024,4.279-.013,6.419A4.352,4.352,0,0,0,88.85,63.9c.408.055.508.162.5.556-.025,1.288-.023,2.578-.005,3.866A4.37,4.37,0,0,0,93.7,72.686c.948.016,1.9.011,2.845,0a4.379,4.379,0,0,0,4.467-4.48c.011-1.264.006-2.529,0-3.793,0-.282-.01-.451.386-.51a4.349,4.349,0,0,0,3.993-4.637q.007-3.319,0-6.638a7.308,7.308,0,0,1,.244-1.872,8.932,8.932,0,0,1,3.64-4.753,22.742,22.742,0,0,0,9.2-17.31,23.258,23.258,0,0,0-15.4-23.213M98.089,68.241a1.452,1.452,0,0,1-1.573,1.527q-1.348.022-2.7,0a1.446,1.446,0,0,1-1.557-1.544c-.018-1.287.009-2.575-.014-3.862-.006-.367.123-.443.458-.434.825.021,1.651.007,2.477.007s1.652.018,2.477-.008c.36-.011.445.11.44.452-.019,1.287.007,2.575-.013,3.862m4.4-12.389c-.039,1.165,0,2.333-.014,3.5a1.483,1.483,0,0,1-1.662,1.663q-5.65.01-11.3,0a1.464,1.464,0,0,1-1.624-1.626c-.011-1.215.028-2.431-.017-3.645-.019-.522.187-.574.621-.571,2.236.018,4.471.008,6.707.008,2.212,0,4.423.024,6.634-.016.575-.011.673.17.656.688" transform="translate(-57.823 -4.115)" fill="#fff" stroke="#fff" stroke-width="0.5"/>
      </g>
    </g>
  </g>
</svg>
