<svg id="icon-instagram" xmlns="http://www.w3.org/2000/svg" width="47.558" height="47.567" viewBox="0 0 47.558 47.567">
  <path d="M1294.813,803.071a7.926,7.926,0,1,0,7.926,7.926A7.925,7.925,0,0,0,1294.813,803.071Z" transform="translate(-1271.025 -787.208)" fill="#fff"/>
  <path d="M1319.588,802.32a17.362,17.362,0,0,0-1.1-5.771,12.187,12.187,0,0,0-6.96-6.959,17.428,17.428,0,0,0-5.771-1.107c-2.544-.121-3.354-.149-9.813-.149s-7.263.028-9.8.14a17.385,17.385,0,0,0-5.77,1.106,12.185,12.185,0,0,0-6.961,6.959,17.39,17.39,0,0,0-1.106,5.77c-.12,2.547-.147,3.356-.147,9.815s.027,7.266.139,9.8a17.346,17.346,0,0,0,1.105,5.771,12.182,12.182,0,0,0,6.959,6.959,17.448,17.448,0,0,0,5.771,1.106c2.536.108,3.346.139,9.8.139s7.266-.028,9.8-.139a17.39,17.39,0,0,0,5.77-1.106,12.168,12.168,0,0,0,6.96-6.959,17.48,17.48,0,0,0,1.108-5.772c.107-2.537.139-3.346.139-9.8S1319.7,804.857,1319.588,802.32Zm-23.649,22.021a12.219,12.219,0,1,1,12.219-12.219A12.219,12.219,0,0,1,1295.939,824.341Zm12.7-22.067a2.853,2.853,0,1,1,2.853-2.853A2.853,2.853,0,0,1,1308.643,802.274Z" transform="translate(-1272.152 -788.335)"/>
</svg>
