<svg xmlns="http://www.w3.org/2000/svg" xmlns:xlink="http://www.w3.org/1999/xlink" width="130" height="130" viewBox="0 0 130 130">
  <defs>
    <clipPath id="clip-path">
      <rect id="Ret창ngulo_459" data-name="Ret창ngulo 459" width="75" height="67.42" fill="#fff" stroke="#fff" stroke-width="0.5"/>
    </clipPath>
  </defs>
  <g id="Grupo_2593" data-name="Grupo 2593" transform="translate(15247 -8054)">
    <path id="Prancheta_1_c처pia_6-100" data-name="Prancheta 1 c처pia 6-100" d="M65,0A65,65,0,1,1,0,65,65,65,0,0,1,65,0Z" transform="translate(-15247 8054)" fill="#fbbd96"/>
    <g id="Grupo_2590" data-name="Grupo 2590" transform="translate(-15222 8085)">
      <g id="Grupo_2578" data-name="Grupo 2578" clip-path="url(#clip-path)">
        <path id="Caminho_1478" data-name="Caminho 1478" d="M290.3,303.988a1.484,1.484,0,0,1,1.461,1.5,1.461,1.461,0,0,1-2.922-.073,1.488,1.488,0,0,1,1.461-1.428" transform="translate(-232.297 -244.478)" fill="#fff" stroke="#fff" stroke-width="0.5"/>
        <path id="Caminho_1479" data-name="Caminho 1479" d="M74.911,206.75a5.808,5.808,0,0,0-7.842-4.529c-4.232,1.526-8.443,3.111-12.666,4.662-.252.093-.5.289-.8.189a6.074,6.074,0,0,0-6.647-6.747c-2.751.137-5.515.017-8.273.035a2.92,2.92,0,0,1-1.523-.4q-3.49-1.988-7-3.934a11.92,11.92,0,0,0-8.12-1.377,24.987,24.987,0,0,0-5.733,2.122,7.17,7.17,0,0,1-3.107.669c-3.734-.041-7.469,0-11.2-.03A2.013,2.013,0,0,0,0,198.442v21.386a1.7,1.7,0,0,0,1.461,1.031c4.2,0,8.4.006,12.595-.008a1.425,1.425,0,0,0,1.467-1.492c.015-.341.014-.684,0-1.025-.011-.276.064-.391.373-.352.919.117,1.846.176,2.761.313a36.81,36.81,0,0,1,8.482,2.645,35.214,35.214,0,0,0,11.432,2.822c4.842.274,9.335-1.187,13.816-2.708a1.374,1.374,0,0,0,.847-1.787,1.419,1.419,0,0,0-1.8-.933c-.864.249-1.712.555-2.574.813a30.682,30.682,0,0,1-8.714,1.711,27.186,27.186,0,0,1-10.2-1.984c-4.531-1.8-9.042-3.655-14.016-3.814-.306-.01-.411-.111-.411-.432q.015-7.03,0-14.06c0-.27.039-.441.352-.53a24.042,24.042,0,0,0,3.636-1.51,10.045,10.045,0,0,1,10.1.516c1.974,1.2,4.032,2.267,6.034,3.423a5.945,5.945,0,0,0,3.13.821q4.466-.05,8.933,0a2.926,2.926,0,1,1-.084,5.848q-7.176.006-14.352,0a2.2,2.2,0,0,0-1.136.207,1.449,1.449,0,0,0-.679,1.628,1.433,1.433,0,0,0,1.528,1.093c4.76.005,9.519-.009,14.279.012a8.569,8.569,0,0,0,3.067-.563q8.823-3.278,17.66-6.52a2.925,2.925,0,0,1,2.343,5.36c-.851.44-.851.44-1.353-.395a1.455,1.455,0,0,0-1.937-.665,1.476,1.476,0,0,0-.675,1.988,1.635,1.635,0,0,0,.161.327c.23.319.16.482-.212.636-.9.371-1.781.783-2.663,1.193a1.47,1.47,0,1,0,1.179,2.679c2.326-1.055,4.661-2.093,6.953-3.217a5.788,5.788,0,0,0,3.122-6.151m-62.9,11.191q-4.246-.035-8.493,0c-.479,0-.6-.123-.6-.6q.026-8.2,0-16.4c0-.475.118-.605.6-.6q4.246.036,8.493,0c.483,0,.6.128.6.6-.023,2.733-.011,5.467-.011,8.2s-.012,5.467.012,8.2c0,.479-.123.6-.6.6" transform="translate(0 -156.377)" fill="#fff" stroke="#fff" stroke-width="0.5"/>
        <path id="Caminho_1480" data-name="Caminho 1480" d="M168.91.24a13.436,13.436,0,0,0-7.36,4.2c-.383.417-.57.426-.924-.007a11.2,11.2,0,0,0-2.122-1.9A12.193,12.193,0,0,0,141.533,4.6c-2.683,3.41-2.982,7.262-1.778,11.3a26.647,26.647,0,0,0,6.181,10.155,74.377,74.377,0,0,0,14.239,11.758,1.606,1.606,0,0,0,1.963-.087c2.209-1.479,4.386-3,6.47-4.653A49.784,49.784,0,0,0,179.58,21.78c2.01-3.032,3.43-6.278,3.478-8.9C183.109,4.372,176.2-1.255,168.91.24m8.211,19.932a45.173,45.173,0,0,1-9.576,10.005c-1.932,1.567-3.948,3.023-6.006,4.419-.231.156-.405.35-.759.107-5.062-3.475-9.911-7.2-13.838-11.977a20.5,20.5,0,0,1-4.644-8.834c-.759-3.673.155-6.8,3.221-9.076a8.913,8.913,0,0,1,10.105-.636,11.37,11.37,0,0,1,4.067,3.713c.87,1.258,1.9,1.255,2.785.027,2.239-3.1,5.146-5.022,9.1-4.964,4.685.068,8.564,4.05,8.545,9.412-.059,2.477-1.3,5.227-3,7.8" transform="translate(-111.853 0)" fill="#fff" stroke="#fff" stroke-width="0.5"/>
        <path id="Caminho_1481" data-name="Caminho 1481" d="M225.186,68.834c-.634,0-1.27.023-1.9-.008-.386-.019-.5.1-.488.487.023,1.22.013,2.44.007,3.66-.005,1.071-.563,1.719-1.465,1.719s-1.457-.654-1.462-1.722c-.005-1.22-.017-2.44.008-3.659.008-.389-.113-.491-.492-.484-1.219.023-2.439.012-3.659.007-1.062,0-1.722-.575-1.713-1.469.008-.878.684-1.451,1.74-1.457,1.147-.007,2.294-.028,3.44.01.517.017.72-.073.692-.658-.056-1.168-.022-2.341-.015-3.512a1.479,1.479,0,1,1,2.926,0c.007,1.147.047,2.3-.016,3.439-.035.645.188.755.769.731,1.145-.047,2.293-.023,3.439-.011a1.5,1.5,0,0,1,1.664,1.459,1.474,1.474,0,0,1-1.643,1.466c-.61.007-1.22,0-1.83,0" transform="translate(-172.122 -48.297)" fill="#fff" stroke="#fff" stroke-width="0.5"/>
      </g>
    </g>
  </g>
</svg>
