<svg id="icon-twitter" xmlns="http://www.w3.org/2000/svg" width="59.355" height="48.238" viewBox="0 0 59.355 48.238">
  <path d="M18.748,44.414c22.4,0,34.648-18.557,34.648-34.648q0-.791-.034-1.574a24.782,24.782,0,0,0,6.074-6.306A24.3,24.3,0,0,1,52.443,3.8,12.223,12.223,0,0,0,57.8-2.933,24.424,24.424,0,0,1,50.065.023,12.188,12.188,0,0,0,29.314,11.128,34.575,34.575,0,0,1,4.212-1.595a12.188,12.188,0,0,0,3.77,16.257A12.083,12.083,0,0,1,2.467,13.14c0,.051,0,.1,0,.155a12.181,12.181,0,0,0,9.77,11.938,12.163,12.163,0,0,1-5.5.209A12.191,12.191,0,0,0,18.112,33.9,24.431,24.431,0,0,1,2.987,39.112a24.782,24.782,0,0,1-2.9-.169,34.472,34.472,0,0,0,18.667,5.47" transform="translate(-0.082 3.824)"/>
</svg>
