<svg xmlns="http://www.w3.org/2000/svg" xmlns:xlink="http://www.w3.org/1999/xlink" width="130" height="130" viewBox="0 0 130 130">
  <defs>
    <clipPath id="clip-path">
      <rect id="Ret창ngulo_462" data-name="Ret창ngulo 462" width="74.612" height="74.667" fill="#fff" stroke="#fff" stroke-width="0.5"/>
    </clipPath>
  </defs>
  <g id="Grupo_2592" data-name="Grupo 2592" transform="translate(15562 -8049)">
    <path id="Prancheta_1_c처pia_6-100" data-name="Prancheta 1 c처pia 6-100" d="M65,0A65,65,0,1,1,0,65,65,65,0,0,1,65,0Z" transform="translate(-15562 8049)" fill="#1a238d"/>
    <g id="Grupo_2591" data-name="Grupo 2591" transform="translate(-15534 8077)">
      <g id="Grupo_2591-2" data-name="Grupo 2591" clip-path="url(#clip-path)">
        <path id="Caminho_1499" data-name="Caminho 1499" d="M185.084,371.786c-.094-.066-.188-.134-.283-.2a1.452,1.452,0,0,1,.755-2.712A1.41,1.41,0,0,1,186.9,369.9a1.435,1.435,0,0,1-.664,1.685c-.1.064-.188.132-.283.2Z" transform="translate(-148.258 -297.12)" fill="#fff" stroke="#fff" stroke-width="0.5"/>
        <path id="Caminho_1500" data-name="Caminho 1500" d="M74.592,44.975a5.243,5.243,0,0,0-.223-1.8,6.031,6.031,0,0,0-5.625-4.013c-.558-.01-1.116,0-1.673,0-1.037-.005-1.066-.031-1.067-1.056q0-7.289,0-14.579a16.27,16.27,0,0,0-.174-2.395A14.9,14.9,0,0,0,54.794,8.974a26.105,26.105,0,0,0-6.221-.438c-.85-.006-.9-.061-.908-.917-.008-1.968.015-3.937-.01-5.9A1.492,1.492,0,0,0,46.433,0H28.092a1.489,1.489,0,0,0-1.221,1.713c-.024,1.967,0,3.934-.01,5.9,0,.866-.053.913-.895.924-1.26.015-2.525-.078-3.78.031A14.82,14.82,0,0,0,8.523,23.5q0,7.176,0,14.352c0,.219-.01.438,0,.656.019.458-.182.668-.646.661-.582-.009-1.163,0-1.745,0A5.806,5.806,0,0,0,0,44.187V65.479c.156.406.094.855.275,1.262a5.936,5.936,0,0,0,5.5,3.738,20.568,20.568,0,0,0,2.107,0,1.062,1.062,0,0,1,1.178.724,5.456,5.456,0,0,0,4.474,3.466H31.149a1.469,1.469,0,0,0,1.185-1.643,1.663,1.663,0,0,0-1.575-1.462,6.852,6.852,0,0,0-.8-.023H22.831c-1.368,0-1.368,0-1.368-1.335,0-5.248.017-10.5-.006-15.743A15.859,15.859,0,0,1,24.4,44.806a15.44,15.44,0,0,1,12.354-6.659,14.93,14.93,0,0,1,9.577,2.878A15.149,15.149,0,0,1,53.019,53.3c.182,5.8.045,11.612.04,17.418,0,.746-.078.816-.856.821-1.479.01-2.958,0-4.437,0-1.309,0-2.62-.044-3.928.023a1.636,1.636,0,0,0-1.648,1.461,1.469,1.469,0,0,0,1.185,1.643H60.843a8.894,8.894,0,0,0,1.681-.377,5.772,5.772,0,0,0,2.957-3.076A1.034,1.034,0,0,1,66.6,70.5c.775.027,1.552.028,2.328,0a5.889,5.889,0,0,0,5.685-5.84c-.056-6.56-.014-13.121-.019-19.681m-71.675.234a2.886,2.886,0,0,1,2.909-2.914c.8-.015,1.6.021,2.4-.013.42-.018.521.12.515.526-.022,1.676-.009,3.353-.009,5.029s-.014,3.353.01,5.029c.006.415-.113.525-.522.519q-2.4-.035-4.8,0c-.414.006-.521-.113-.518-.522.019-2.551,0-5.1.016-7.653M8.1,67.386c-.774-.044-1.552,0-2.327-.017a2.871,2.871,0,0,1-2.854-2.819c-.032-2.6,0-5.2-.021-7.8,0-.409.143-.471.5-.468,1.624.016,3.25.022,4.874,0,.407-.006.471.141.468.5-.016,1.7-.007,3.4-.007,5.1,0,1.628-.024,3.256.014,4.883.013.528-.147.651-.644.622M29.975,3.425c-.006-.416.116-.519.523-.518q6.767.021,13.534,0c.414,0,.524.113.518.522q-.035,2.405,0,4.811c.006.416-.116.522-.523.518-2.256-.019-4.511-.009-6.767-.009-2.231,0-4.463-.015-6.694.012-.479.006-.6-.125-.593-.6C30,6.585,30,5,29.975,3.425m32.9,65.122a2.943,2.943,0,0,1-3.216,3.2c-.946,0-1.894-.042-2.837.016-.579.036-.655-.175-.653-.688.018-5.759.141-11.522-.022-17.277-.23-8.089-4.122-13.98-11.486-17.25C33.509,31.6,20.608,38.763,18.607,50.834a21.127,21.127,0,0,0-.27,3.482c.005,5.589-.005,11.178.015,16.767,0,.525-.092.714-.659.682-.967-.055-1.94-.011-2.91-.016a2.924,2.924,0,0,1-3.137-3.133q-.006-11.446,0-22.891,0-11.117,0-22.235a11.637,11.637,0,0,1,9.408-11.6,11.49,11.49,0,0,1,2.384-.223q13.825.007,27.65.006A11.63,11.63,0,0,1,62.877,23.494q.015,22.526,0,45.053m3.445-26.268c.8.046,1.6,0,2.4.017a2.877,2.877,0,0,1,2.881,2.868c.027,2.575,0,5.15.016,7.726,0,.361-.068.5-.47.5-1.624-.025-3.25-.028-4.874,0-.452.008-.5-.171-.493-.548.018-1.676.008-3.353.008-5.029,0-1.652.014-3.3-.01-4.956-.006-.423.063-.6.543-.575m5.282,22.177A2.888,2.888,0,0,1,68.7,67.371c-.8.016-1.6-.021-2.4.014-.422.018-.519-.124-.514-.527.022-1.676.009-3.352.009-5.029s.014-3.353-.01-5.029c-.006-.416.114-.524.522-.518q2.4.035,4.8,0c.413-.006.521.112.518.522-.019,2.551.005,5.1-.016,7.652" fill="#fff" stroke="#fff" stroke-width="0.5"/>
        <path id="Caminho_1501" data-name="Caminho 1501" d="M149.444,269.879q4.179,0,8.358,0c1.1,0,1.777.575,1.758,1.486-.018.88-.677,1.423-1.742,1.429-.727,0-1.454.018-2.18-.007-.347-.012-.459.089-.448.443.026.776.017,1.553.005,2.33a1.461,1.461,0,1,1-2.906-.006c-.011-.728-.036-1.459.01-2.184.032-.5-.145-.588-.6-.586-3.561.018-7.122.009-10.683.012a1.909,1.909,0,0,1-1.12-.222,1.414,1.414,0,0,1-.666-1.564,1.442,1.442,0,0,1,1.5-1.128c1.914-.013,3.827,0,5.741,0h2.98" transform="translate(-112.112 -217.38)" fill="#fff" stroke="#fff" stroke-width="0.5"/>
        <path id="Caminho_1502" data-name="Caminho 1502" d="M153.9,89.9q-4.543-.068-9.087,0a5.814,5.814,0,0,0-.938,11.521,36.8,36.8,0,0,0,5.033.128c1.934,0,3.462.029,4.987-.006A5.824,5.824,0,0,0,153.9,89.9m-.244,8.731q-4.29.022-8.579,0a2.914,2.914,0,1,1-.025-5.826c1.454-.014,2.908,0,4.362,0,1.406,0,2.811-.01,4.217,0a2.914,2.914,0,1,1,.025,5.826" transform="translate(-112.094 -72.385)" fill="#fff" stroke="#fff" stroke-width="0.5"/>
      </g>
    </g>
  </g>
</svg>
