<svg id="icon-youtube" xmlns="http://www.w3.org/2000/svg" width="59.47" height="41.639" viewBox="0 0 59.47 41.639">
  <path d="M58.246.433A7.45,7.45,0,0,0,53-4.809C48.351-6.082,29.735-6.082,29.735-6.082s-18.615,0-23.268,1.225A7.6,7.6,0,0,0,1.225.433C0,5.087,0,14.737,0,14.737s0,9.7,1.225,14.3a7.452,7.452,0,0,0,5.242,5.242c4.7,1.274,23.269,1.274,23.269,1.274s18.615,0,23.268-1.225a7.451,7.451,0,0,0,5.242-5.241c1.224-4.654,1.224-14.3,1.224-14.3s.049-9.7-1.225-14.353ZM23.808,23.653V5.822l15.48,8.915Zm0,0" transform="translate(-0.001 6.082)"/>
</svg>
