<svg xmlns="http://www.w3.org/2000/svg" xmlns:xlink="http://www.w3.org/1999/xlink" width="134" height="134" viewBox="0 0 134 134">
  <defs>
    <clipPath id="clip-path">
      <rect id="Retângulo_464" data-name="Retângulo 464" width="60.963" height="67.541" fill="#fff" stroke="#fff" stroke-width="0.5"/>
    </clipPath>
  </defs>
  <g id="Grupo_2608" data-name="Grupo 2608" transform="translate(15244 -8213)">
    <g id="Grupo_2602" data-name="Grupo 2602" transform="translate(-15529 4892)">
      <g id="Grupo_2448" data-name="Grupo 2448" transform="translate(138 2455)">
        <circle id="Elipse_12" data-name="Elipse 12" cx="67" cy="67" r="67" transform="translate(147 866)" fill="#513fa4"/>
      </g>
    </g>
    <g id="Grupo_2607" data-name="Grupo 2607" transform="translate(-15207 8246)">
      <g id="Grupo_2606" data-name="Grupo 2606" clip-path="url(#clip-path)">
        <path id="Caminho_1510" data-name="Caminho 1510" d="M32.481,383.192a.173.173,0,0,0-.019-.115.789.789,0,0,1,.677.115Z" transform="translate(-26.75 -315.651)" fill="#fff" stroke="#fff" stroke-width="0.5"/>
        <path id="Caminho_1511" data-name="Caminho 1511" d="M310.851,383.077a.162.162,0,0,0-.018.115h-.658a.791.791,0,0,1,.677-.115" transform="translate(-255.597 -315.651)" fill="#fff" stroke="#fff" stroke-width="0.5"/>
        <path id="Caminho_1512" data-name="Caminho 1512" d="M60.953,9.2a4.113,4.113,0,0,0-3.142-3.85A8.12,8.12,0,0,0,55.718,5.2c-1.4-.008-1.289.071-1.36-1.244A3.769,3.769,0,0,0,52.048.406,4.257,4.257,0,0,0,47.728.8a4.088,4.088,0,0,0-1.64,3.365C46.056,5.2,46.062,5.2,45.006,5.2c-.834,0-1.667,0-2.5,0-1.4,0-1.244.007-1.31-1.222A3.78,3.78,0,0,0,38.842.388a4.251,4.251,0,0,0-4.315.437,4.176,4.176,0,0,0-1.61,3.515c-.008.814-.055.856-.859.861-.943.005-1.887,0-2.83,0-1.144,0-1.144,0-1.185-1.133A3.944,3.944,0,0,0,24.433.077,3.965,3.965,0,0,0,19.825,3.4a6.174,6.174,0,0,0-.074,1.048c-.018.68-.076.743-.772.751-.965.011-1.931,0-2.9,0-1.293,0-1.178-.012-1.213-1.178A3.914,3.914,0,0,0,11.29.08,3.97,3.97,0,0,0,6.653,3.443a5.212,5.212,0,0,0-.066.852c-.018.88-.042.9-.949.907-.351,0-.7,0-1.053,0A4.2,4.2,0,0,0,0,9.794Q0,35.3,0,60.8a8.075,8.075,0,0,0,.253,1.951c.615,2.489,3.183,4.794,5.375,4.722.253.032.518-.071.761.068H54.577c.246-.139.513-.036.768-.068a4.216,4.216,0,0,0,2.407-.762,6.717,6.717,0,0,0,3.208-5.917q.006-25.5,0-51.007c0-.2,0-.4-.008-.592M48.919,4.031a1.314,1.314,0,0,1,2.625-.016c.13,1.385.13,1.385-1.369,1.385-1.37,0-1.37,0-1.255-1.369m-13.16-.1a1.316,1.316,0,0,1,2.612-.011c.211,1.414.151,1.481-1.333,1.481-1.433,0-1.478-.052-1.279-1.47m-13.166,0A1.316,1.316,0,0,1,25.2,3.919c.212,1.414.151,1.482-1.332,1.482-1.434,0-1.478-.051-1.28-1.47m-13.166,0a1.316,1.316,0,0,1,2.612-.019c.215,1.411.149,1.485-1.328,1.485-1.441,0-1.479-.044-1.284-1.466M2.835,9.688c0-1.211.451-1.652,1.678-1.655.636,0,1.273.014,1.909-.007.291-.01.371.084.37.37a7.584,7.584,0,0,0,.1,1.834,3.982,3.982,0,0,0,3.4,3.049,1.418,1.418,0,0,0,1.757-1.155,1.4,1.4,0,0,0-1.408-1.482c-.777-.025-1.2-.6-1.218-1.435C9.39,8.033,9.39,8.033,10.548,8.033c2.918,0,5.837.018,8.755-.016.571-.007.7.16.656.688a4.164,4.164,0,0,0,.807,3.038,3.855,3.855,0,0,0,3.059,1.548A1.31,1.31,0,0,0,25.21,12.08a1.326,1.326,0,0,0-1.191-1.406c-1.118-.168-1.433-.543-1.436-1.708,0-.932,0-.932.912-.932,2.984,0,5.969.014,8.952-.013.532-.005.73.1.679.665a4.153,4.153,0,0,0,.793,3.042,3.844,3.844,0,0,0,3.115,1.565,1.3,1.3,0,0,0,1.343-1.256,1.329,1.329,0,0,0-1.172-1.36c-1.138-.181-1.454-.546-1.457-1.688a5.674,5.674,0,0,0,0-.592c-.032-.292.082-.368.368-.368q4.9.014,9.808,0c.292,0,.37.087.368.371a7.439,7.439,0,0,0,.112,1.9,3.989,3.989,0,0,0,3.516,2.993,1.377,1.377,0,0,0,1.623-1.167A1.344,1.344,0,0,0,50.2,10.665,1.346,1.346,0,0,1,48.915,9.14C48.9,8.033,48.9,8.033,49.982,8.033q3.292,0,6.583,0c1.082,0,1.564.484,1.565,1.569,0,2.765-.014,5.53.015,8.294.005.531-.1.684-.664.683q-13.528-.031-27.055-.015-13.462,0-26.924.013c-.53,0-.692-.1-.684-.663.034-2.742.014-5.485.016-8.228m55.3,45.676a3.969,3.969,0,0,1-4.258,4.277q-8.821,0-17.641,0a4.813,4.813,0,0,0-.657.016,1.311,1.311,0,0,0-.024,2.6,4.323,4.323,0,0,0,.657.019c5.639,0,11.278-.021,16.917.013a7.8,7.8,0,0,0,4.985-1.319A3.948,3.948,0,0,1,54.4,64.9c-.153.008-.307.007-.461.007q-23.467,0-46.934,0a3.973,3.973,0,0,1-4.135-3.376c-.026-.15-.023-.3-.039-.545a7.024,7.024,0,0,0,2.978,1.2,9.093,9.093,0,0,0,1.047.081q9.051.007,18.1,0a2.8,2.8,0,0,0,.46-.018,1.312,1.312,0,0,0-.037-2.6,4.959,4.959,0,0,0-.657-.015H7.217c-2.77,0-4.383-1.6-4.383-4.349q0-16.719-.014-33.438c0-.553.137-.669.677-.669q26.989.024,53.977,0c.55,0,.672.131.671.675q-.027,16.752-.014,33.5" transform="translate(0 0)" fill="#fff" stroke="#fff" stroke-width="0.5"/>
        <path id="Caminho_1513" data-name="Caminho 1513" d="M168.4,340.3a1.313,1.313,0,1,1-1.268-1.326A1.327,1.327,0,0,1,168.4,340.3" transform="translate(-136.609 -279.329)" fill="#fff" stroke="#fff" stroke-width="0.5"/>
        <path id="Caminho_1514" data-name="Caminho 1514" d="M56.556,156.353a1.32,1.32,0,0,0-1.462-1.469q-3.781-.013-7.563,0a1.333,1.333,0,0,0-1.5,1.494q-.01,3.748,0,7.5a1.345,1.345,0,0,0,1.528,1.537q3.749.008,7.5,0a1.337,1.337,0,0,0,1.5-1.5c.009-1.249,0-2.5,0-3.749,0-1.271.008-2.543,0-3.814m-3.065,6.434c-1.47-.017-2.94-.019-4.409,0-.355,0-.435-.108-.431-.443.017-1.469.019-2.939,0-4.409-.005-.355.108-.434.443-.43,1.47.017,2.94.019,4.409,0,.356-.005.441.108.431.443-.023.745-.007,1.491-.007,2.237,0,.724-.02,1.448.009,2.171.014.356-.108.435-.443.431" transform="translate(-37.925 -127.626)" fill="#fff" stroke="#fff" stroke-width="0.5"/>
        <path id="Caminho_1515" data-name="Caminho 1515" d="M152.281,154.887q-3.716-.007-7.431,0c-1.045,0-1.546.49-1.548,1.516q-.009,3.749,0,7.5c0,1.026.5,1.512,1.549,1.517,1.227.006,2.455,0,3.683,0s2.455,0,3.683,0c1.136,0,1.613-.467,1.615-1.584q.006-3.683,0-7.366c0-1.09-.479-1.579-1.55-1.581m-1.075,7.5c0,.308-.072.418-.4.409-.767-.023-1.535-.008-2.3-.008-.724,0-1.448-.014-2.171.007-.309.009-.412-.073-.409-.4q.025-2.237,0-4.475c0-.308.073-.412.4-.409q2.237.025,4.475,0c.308,0,.412.073.409.4q-.026,2.237,0,4.475" transform="translate(-118.083 -127.631)" fill="#fff" stroke="#fff" stroke-width="0.5"/>
        <path id="Caminho_1516" data-name="Caminho 1516" d="M251.11,160.154c0-1.206,0-2.411,0-3.617,0-1.181-.457-1.646-1.617-1.648q-3.65,0-7.3,0c-1.139,0-1.613.465-1.615,1.582q-.006,3.683,0,7.365c0,1.089.48,1.58,1.549,1.582q3.716.008,7.431,0c1.069,0,1.546-.493,1.55-1.583,0-1.227,0-2.455,0-3.683m-3,2.64q-2.27-.02-4.541,0c-.291,0-.37-.085-.367-.371q.02-2.27,0-4.54c0-.291.085-.374.371-.368.767.018,1.535.006,2.3.006.746,0,1.492.013,2.237-.006.292-.008.37.085.367.371q-.02,2.27,0,4.541c0,.291-.085.37-.371.367" transform="translate(-198.245 -127.634)" fill="#fff" stroke="#fff" stroke-width="0.5"/>
        <path id="Caminho_1517" data-name="Caminho 1517" d="M56.556,246.186a1.331,1.331,0,0,0-1.482-1.516q-3.781-.011-7.563,0a1.331,1.331,0,0,0-1.484,1.513q-.009,3.748,0,7.5c0,1.028.5,1.513,1.547,1.518,1.228.006,2.455,0,3.683,0,1.25,0,2.5,0,3.749,0,1.046,0,1.547-.49,1.55-1.516q.01-3.748,0-7.5m-3.027,6.388q-2.237-.024-4.475,0c-.317,0-.412-.087-.4-.4.022-.745.007-1.491.007-2.237s.015-1.492-.007-2.237c-.01-.318.087-.406.4-.4q2.237.024,4.475,0c.317,0,.406.087.4.4q-.024,2.237,0,4.475c0,.317-.088.406-.4.4" transform="translate(-37.925 -201.615)" fill="#fff" stroke="#fff" stroke-width="0.5"/>
        <path id="Caminho_1518" data-name="Caminho 1518" d="M153.824,246.117a1.307,1.307,0,0,0-1.414-1.449q-3.847-.017-7.695,0a1.307,1.307,0,0,0-1.418,1.445q-.013,3.814,0,7.628a1.324,1.324,0,0,0,1.479,1.452c1.249.01,2.5,0,3.749,0,1.271,0,2.543.007,3.814,0a1.326,1.326,0,0,0,1.484-1.448q.015-3.814,0-7.628M150.8,252.57q-2.237-.024-4.475,0c-.317,0-.412-.087-.4-.4.022-.745.007-1.491.007-2.237s.015-1.492-.007-2.237c-.01-.317.087-.406.4-.4q2.237.024,4.475,0c.317,0,.406.087.4.4q-.024,2.237,0,4.475c0,.317-.087.406-.4.4" transform="translate(-118.078 -201.61)" fill="#fff" stroke="#fff" stroke-width="0.5"/>
        <path id="Caminho_1519" data-name="Caminho 1519" d="M249.523,244.675q-3.683-.006-7.366,0c-1.09,0-1.578.479-1.58,1.551q-.007,3.716,0,7.431c0,1.068.493,1.544,1.583,1.548,1.228,0,2.455,0,3.683,0,1.206,0,2.411,0,3.617,0,1.18,0,1.645-.457,1.647-1.618q0-3.65,0-7.3c0-1.137-.467-1.611-1.585-1.613m-1.482,7.905c-1.47-.017-2.94-.019-4.409,0-.356.005-.434-.108-.431-.443.017-1.469.019-2.939,0-4.409-.005-.356.108-.434.443-.431,1.47.017,2.94.019,4.409,0,.355,0,.441.108.431.443-.023.745-.007,1.491-.007,2.237,0,.724-.02,1.449.008,2.171.014.356-.108.435-.443.431" transform="translate(-198.244 -201.621)" fill="#fff" stroke="#fff" stroke-width="0.5"/>
      </g>
    </g>
  </g>
</svg>
