<svg xmlns="http://www.w3.org/2000/svg" xmlns:xlink="http://www.w3.org/1999/xlink" width="130" height="130" viewBox="0 0 130 130">
  <defs>
    <clipPath id="clip-path">
      <rect id="Ret창ngulo_463" data-name="Ret창ngulo 463" width="64.314" height="74.835" fill="#fff" stroke="#fff" stroke-width="0.5"/>
    </clipPath>
  </defs>
  <g id="Grupo_2600" data-name="Grupo 2600" transform="translate(15392 -8058)">
    <g id="Grupo_2599" data-name="Grupo 2599">
      <path id="Prancheta_1_c처pia_6-100" data-name="Prancheta 1 c처pia 6-100" d="M65,0A65,65,0,1,1,0,65,65,65,0,0,1,65,0Z" transform="translate(-15392 8058)" fill="#458dd7"/>
      <g id="Grupo_2598" data-name="Grupo 2598" transform="translate(-15359 8086)">
        <g id="Grupo_2597" data-name="Grupo 2597" clip-path="url(#clip-path)">
          <path id="Caminho_1503" data-name="Caminho 1503" d="M64.305,22.824a4.357,4.357,0,0,0-4.338-4.388.756.756,0,0,1-.8-.522c-.936-2.107-1.915-4.2-2.858-6.3a4.457,4.457,0,0,0-4.422-2.841c-3.8.01-7.6-.005-11.4.013-.471,0-.66-.115-.768-.6-.344-1.565-.756-3.116-1.152-4.669a4.4,4.4,0,0,0-4.5-3.5c-2.752-.006-5.5,0-8.257,0C25,.007,24.2-.012,23.4.014a1.447,1.447,0,0,0-1.462,1.423,1.466,1.466,0,0,0,1.474,1.489c.194.011.39,0,.584,0,3.337,0,6.674.006,10.01,0,.69,0,1.341.16,1.548.846.493,1.634.883,3.3,1.329,5-2.4,0-4.69,0-6.978,0a4.4,4.4,0,0,0-4.323,2.766c-.958,2.1-1.928,4.19-2.858,6.3a.842.842,0,0,1-.9.6,4.341,4.341,0,0,0-4.271,4.3c-.019,1-.016,2,0,3a4.346,4.346,0,0,0,3.928,4.338c.521.051.6.222.638.682.136,1.772.289,3.543.506,5.306.08.654-.07.786-.721.791-3.042.027-6.092-.207-9.125.119A14.67,14.67,0,0,0,.006,50.7c-.071,1.6.5,2.333,2.072,2.232.027,0,.058.052.105.1a5.937,5.937,0,0,0,.024,5.7c-1.911.1-2.292.535-2.179,2.406A14.7,14.7,0,0,0,9.745,74c1.026.361,2.108.466,3.123.839H52.179c2.438-.689,3.54-2.322,3.713-4.832.245-3.544.67-7.075,1.019-10.612q.7-7.085,1.4-14.17c.48-4.869.966-9.737,1.428-14.607.038-.4.166-.489.554-.526a4.365,4.365,0,0,0,4.012-4.414c.011-.95.013-1.9,0-2.85m-36.638-8.83c1.092-2.372.813-2.306,3.548-2.3q10.256.021,20.512-.011a1.93,1.93,0,0,1,2.018,1.307c.77,1.8,1.6,3.57,2.43,5.405H25.68c.676-1.5,1.321-2.955,1.987-4.4M3.131,49.232A11.716,11.716,0,0,1,14.74,39.761q6.5-.014,13,0A11.724,11.724,0,0,1,39.28,49.311c.1.508.05.7-.565.7-5.865-.028-11.73-.017-17.595-.017-5.792,0-11.584-.012-17.376.016-.671,0-.736-.195-.613-.774M35.657,58.7a3.11,3.11,0,0,1-.652.058q-13.8,0-27.607,0a2.921,2.921,0,0,1-1.479-5.485,3.412,3.412,0,0,1,1.689-.362q6.792.012,13.584,0c4.625,0,9.251-.009,13.876.005a2.909,2.909,0,0,1,2.922,2.62A2.939,2.939,0,0,1,35.657,58.7M27.628,71.91q-6.43.013-12.86,0A11.7,11.7,0,0,1,3.155,62.522c-.139-.633-.111-.863.652-.859,5.8.034,11.593.019,17.39.019s11.594.015,17.39-.018c.759,0,.791.22.652.857a11.7,11.7,0,0,1-11.611,9.39M61.384,25.525a1.487,1.487,0,0,1-1.67,1.663q-5.918.01-11.836,0a2.141,2.141,0,0,0-1.066.178,1.5,1.5,0,0,0-.736,1.61,1.474,1.474,0,0,0,1.509,1.131c1.924.013,3.848,0,5.772,0,1.023,0,2.046.017,3.068-.009.379-.01.435.115.4.461q-.852,8.426-1.68,16.855-.767,7.812-1.516,15.625-.36,3.706-.73,7.412a1.457,1.457,0,0,1-1.523,1.448q-7.269.016-14.539,0c-.036,0-.072-.042-.158-.1a15.32,15.32,0,0,0,3.566-3.993,14.6,14.6,0,0,0,2.119-6.747c.121-1.811-.292-2.252-2.165-2.339a7.118,7.118,0,0,0,.729-2.915,6.99,6.99,0,0,0-.755-2.911c.328,0,.6.022.861,0a1.46,1.46,0,0,0,1.341-1.682,14.41,14.41,0,0,0-8.231-12.907A14.661,14.661,0,0,0,26.5,36.847c-.662.032-.954-.073-.992-.852-.087-1.8-.3-3.589-.494-5.38-.048-.446.105-.513.5-.511q4.31.023,8.621.006a1.47,1.47,0,1,0,.04-2.918q-5.078-.011-10.155,0c-.658,0-1.315.011-1.973,0a1.46,1.46,0,0,1-1.576-1.533q-.029-1.388,0-2.776a1.457,1.457,0,0,1,1.5-1.532c.17-.008.341,0,.511,0H59.381c1.558,0,2,.442,2,1.989,0,.731.007,1.461,0,2.192" transform="translate(0 0)" fill="#fff" stroke="#fff" stroke-width="0.5"/>
          <path id="Caminho_1504" data-name="Caminho 1504" d="M203.535,142.156A1.458,1.458,0,1,1,205,140.744a1.471,1.471,0,0,1-1.467,1.412" transform="translate(-162.62 -112.047)" fill="#fff" stroke="#fff" stroke-width="0.5"/>
        </g>
      </g>
    </g>
  </g>
</svg>
