<svg xmlns="http://www.w3.org/2000/svg" viewBox="0 0 351.45 93.69"><defs><style>.cls-1,.cls-2{fill:#fff;}.cls-1{fill-rule:evenodd;}</style></defs><g id="Camada_2" data-name="Camada 2"><g id="Camada_1-2" data-name="Camada 1"><path class="cls-1" d="M53.46,25.78c1.46-.53,8.16-1.09,8.16,3a2.09,2.09,0,0,1-2.2,2.15c-2.89,0-1.71-3.36-1.8-3.36-6.92,0-4.13,14.87-3.85,17.2a2.32,2.32,0,0,1-2.51,2.51,2,2,0,0,1-2.21-1.49c-.5-1.37-.62-14.62,6.18-19-1.87,0-7.42,3.69-9.81,11a26.32,26.32,0,0,1,0,5.5c-.06,2-.56,3.26-2.36,3.26-1.46,0-2.51-1.09-2.33-3.26.35-3.91,1.74-15.33-2.23-17.17-4.22,1.59-2.21,16.21-2.21,17.17.07,1.52-.28,3.26-2.48,3.26-2.39,0-2.33-1.52-2.36-3.29,0-1.52.1-4.19.22-5.47C28.44,30,23.76,26.74,22,26.74c6.8,4.44,6.61,17.69,6.11,19.06a2,2,0,0,1-2.16,1.49,2.4,2.4,0,0,1-2.52-2.55c.25-2.29,3-17.16-3.91-17.16-.09,0,1.12,3.41-1.8,3.36a2.09,2.09,0,0,1-2.2-2.15c0-4.1,6.7-3.57,8.16-3C27,27,30.18,30.62,32,34.91c.75-4.41,3.32-9.53,6.52-10.09,3.2.53,5.68,5.68,6.55,10,1.73-4,4.09-7.14,8.38-9.06Zm-36.18-15-1.81-1.3h2.25l.69-2.1.71,2.1h2.23l-1.8,1.3.68,2.1-1.82-1.28-1.82,1.28.69-2.1Zm40.38,0-1.81-1.3H58.1l.69-2.1.71,2.1h2.23l-1.8,1.3.68,2.1-1.82-1.28L57,12.83l.69-2.1Zm-5.43,4.59-.69,2.09,1.82-1.28,1.82,1.28-.68-2.09L56.3,14H54.07l-.71-2.11L52.67,14H50.42l1.81,1.31Zm0-9.26-.69,2.09,1.82-1.28,1.82,1.28L54.5,6.06l1.8-1.31H54.07l-.71-2.1-.69,2.1H50.42l1.81,1.31Zm-7.16,11-1.82-1.31H45.5l.7-2.1.71,2.1h2.23l-1.8,1.31L48,19.18,46.2,17.9l-1.82,1.28.69-2.09Zm0-12.85L43.25,2.93H45.5L46.2.83l.71,2.11h2.23l-1.8,1.31L48,6.33,46.2,5.05,44.38,6.33l.69-2.09ZM22.71,15.32,22,17.41l1.82-1.28,1.82,1.28L25,15.32,26.78,14H24.55l-.71-2.11L23.15,14H20.9l1.81,1.31Zm0-9.26L22,8.15l1.82-1.28,1.82,1.28L25,6.06l1.79-1.31H24.55l-.71-2.1-.69,2.1H20.9l1.81,1.31Zm7.17,11-1.82-1.31h2.25l.69-2.1.71,2.1h2.23l-1.79,1.31.67,2.09L31,17.9l-1.83,1.28.7-2.09Zm0-12.85L28.06,2.93h2.25L31,.83l.71,2.11h2.23L32.15,4.24l.67,2.09L31,5.05,29.18,6.33l.7-2.09Zm7.59,13.49-1.81-1.31h2.25l.69-2.11.71,2.11h2.23l-1.79,1.31.67,2.09L38.6,18.54l-1.82,1.28.69-2.09Zm0-14.33L35.66,2.1h2.25L38.6,0l.71,2.1h2.23L39.75,3.4l.67,2.1L38.6,4.22,36.78,5.5l.69-2.1ZM68.78,88.78l2.33,0h.21c-.17-.51-.39-1.09-.66-1.75s-.49-1.18-.65-1.53l-1.23,3.26Zm-4,4.74,0-.58.56-.12a2.72,2.72,0,0,0,.79-.23,1.51,1.51,0,0,0,.34-.49l1.7-4.46,2-5.24h.91l.08.15L72.69,86c.33.74.63,1.45.89,2.15s.49,1.26.68,1.7c.12.26.27.65.47,1.18a9.8,9.8,0,0,0,.46,1.08,1.43,1.43,0,0,0,.25.42,1,1,0,0,0,.5.16,3.43,3.43,0,0,1,.74.2c0,.18,0,.32,0,.41a1.58,1.58,0,0,1,0,.19q-.63,0-1.38-.06T74,93.4c-.44,0-.76,0-1,0l-1.43.07-.41,0c0-.2,0-.39,0-.57l.94-.2a1.71,1.71,0,0,0,.49-.17.27.27,0,0,0,.08-.19.66.66,0,0,0,0-.23l-.34-.82-.66-1.65-3.22,0c-.12.27-.37.93-.74,2a2.53,2.53,0,0,0-.16.6.36.36,0,0,0,.12.31,1.45,1.45,0,0,0,.74.23l.6.09c0,.21,0,.35,0,.42a.68.68,0,0,1,0,.2c-.35,0-1.18,0-2.49-.14l-.35.06a8.43,8.43,0,0,1-1.19.1ZM55.35,82.13c0,.12-.1.33-.19.65a14.94,14.94,0,0,1-.72,2.2,1.85,1.85,0,0,0,.5.32c.06,0,.17-.09.31-.27a5,5,0,0,1,1.08-1.14,2.56,2.56,0,0,1,1.07-.15c1,0,1.53,0,1.7,0a.22.22,0,0,1,.12,0,.17.17,0,0,1,.06.11,14.75,14.75,0,0,1,0,1.59l0,3.19c0,1.47,0,2.55-.06,3.22a.93.93,0,0,1-.1.42,6.4,6.4,0,0,1-1.22.38,1.13,1.13,0,0,0-.69.37v.26a.84.84,0,0,1,0,.19l.63,0c.82-.07,1.31-.1,1.48-.1,1.06,0,1.8,0,2.2.06s.9.06,1.48.06h.3a1,1,0,0,0,0-.21s0-.17,0-.38a3.52,3.52,0,0,0-.45-.13l-.62-.14a2,2,0,0,1-.5-.11,3,3,0,0,1-.1-.87v-1.1l0-2.67V84.31a4.31,4.31,0,0,1,.05-.54l.59,0c1.05,0,1.66,0,1.79,0a.39.39,0,0,1,.23.15,3,3,0,0,1,.33.69,6.43,6.43,0,0,0,.47.95,3.47,3.47,0,0,0,.61-.14,2.09,2.09,0,0,0,0-.38V82.12h-.63l-.09.21a.8.8,0,0,1-.24.4l-.49.08H61.73l-1.9,0h-1l-.17,0H57.48a8.91,8.91,0,0,1-1.15,0,3.06,3.06,0,0,1-.37-.53,1.32,1.32,0,0,0-.08-.14Zm-2.57.72a7.44,7.44,0,0,1,.15.87c.06.58.1,1,.1,1.35a1.35,1.35,0,0,1,0,.33l-.08,0-.61,0-.1,0a4.63,4.63,0,0,0-.74-1.51A2.05,2.05,0,0,0,50,83.18a1.89,1.89,0,0,0-1.31.44,1.36,1.36,0,0,0-.48,1.07,1.51,1.51,0,0,0,.48,1,4.77,4.77,0,0,0,2,1,8.52,8.52,0,0,1,1.25.49,3.62,3.62,0,0,1,1.1.73,3.24,3.24,0,0,1,.7,1,3.49,3.49,0,0,1,.19,1.21,4.44,4.44,0,0,1-.29,1.56,2.3,2.3,0,0,1-.52.76,5.11,5.11,0,0,1-.78.6,3.89,3.89,0,0,1-1.11.49,5.73,5.73,0,0,1-1.46.16,7.24,7.24,0,0,1-1.4-.17l-1-.3a1.73,1.73,0,0,1-.53-.21.4.4,0,0,1-.07-.16v-.09c0-.07,0-.45-.05-1.16,0-.36,0-.62,0-.77v-.32l.77,0c.27.63.45,1,.52,1.13a3,3,0,0,0,.58.7,2.63,2.63,0,0,0,.76.42,2.91,2.91,0,0,0,.95.15,3.07,3.07,0,0,0,1-.19,1.88,1.88,0,0,0,.88-.64,1.46,1.46,0,0,0-.26-2.1,6.61,6.61,0,0,0-1.9-.88,9.63,9.63,0,0,1-2.15-1A2.93,2.93,0,0,1,46.86,87a3.2,3.2,0,0,1-.35-1.38,3.05,3.05,0,0,1,1-2.28,3.92,3.92,0,0,1,2.83-.93,6.85,6.85,0,0,1,1.2.14,8.25,8.25,0,0,1,1.28.35ZM39.52,93.52v-.6a4,4,0,0,1,.56-.14,4.71,4.71,0,0,0,.82-.28,1.5,1.5,0,0,0,.15-.73v-1l0-1.92V88.4c0-1.11.06-1.69.06-1.72l0-1.12,0-.46,0-1v-.36a1.31,1.31,0,0,0-.05-.27,3.08,3.08,0,0,0-1.13-.2l-.29,0,0-.74,2.41.1.56,0c.33,0,.87,0,1.6-.07l.77,0c0,.11,0,.2,0,.27s0,.22,0,.37a7.39,7.39,0,0,1-.77.22,5.6,5.6,0,0,0-.71.22,2.65,2.65,0,0,0,0,.63,5,5,0,0,0,0,.59c0,1,0,1.68,0,2.2v2.22l0,1.13,0,1.69v.32a1,1,0,0,0,0,.19c.35.07.66.12.94.15l.51.07a2.43,2.43,0,0,1,0,.42c0,.06,0,.16,0,.29h-.17l-.31,0-.22,0L43,93.4l-1.5,0c-.29,0-.73,0-1.29.09l-.73,0Zm-8.22-6h.59a3.14,3.14,0,0,0,2-.51,1.71,1.71,0,0,0,.6-1.37,3.22,3.22,0,0,0-.15-1A1.69,1.69,0,0,0,34,84a2,2,0,0,0-.81-.5A4.27,4.27,0,0,0,32,83.36a4.38,4.38,0,0,0-.67,0v1.3l0,.69v.92c0,.26,0,.59,0,1v.24ZM27.5,93a2.08,2.08,0,0,1,.65-.17,4.07,4.07,0,0,0,.78-.18c0-.11,0-.2.05-.25s0-.34,0-.8V89.71l0-1V87.46c0-.61,0-1.18,0-1.72,0-1.17,0-1.91,0-2.24l-.5-.1c-.46,0-.76-.06-.91-.08l0-.51,0-.09a4.51,4.51,0,0,1,.78-.07h.78l.66,0,.45,0,1-.06c.66-.06,1.35-.1,2.08-.1a4.09,4.09,0,0,1,2.75.88,2.63,2.63,0,0,1,1,2A2.41,2.41,0,0,1,36.63,87,3.33,3.33,0,0,1,34.93,88a4.73,4.73,0,0,0,.27.41c.24.34.43.63.57.86l1.35,2.19a6.25,6.25,0,0,0,.67,1,2.28,2.28,0,0,0,.64.32,2.58,2.58,0,0,1,.58.29.62.62,0,0,1,.05.25,1.42,1.42,0,0,1,0,.19h-.39l-.44-.06h-.35a4.16,4.16,0,0,0-.66,0h-.84l-.6.06-.36,0L35.13,93c-.24-.43-.41-.74-.5-.95-.25-.54-.67-1.41-1.27-2.6a3.23,3.23,0,0,0-.6-.94,1.51,1.51,0,0,0-.86-.18l-.58,0c0,.16,0,.36,0,.58l0,1.87,0,1.59a2.17,2.17,0,0,0,.61.22,6.57,6.57,0,0,1,1.14.32,4.44,4.44,0,0,1,0,.62h-.2l-.35,0c-1.21-.11-1.92-.16-2.15-.16H30l-1.16.07a6.89,6.89,0,0,1-1,.06H27.5c0-.14,0-.23,0-.27s0-.15,0-.26Zm-8.29-4.22,2.33,0h.21c-.17-.51-.39-1.09-.66-1.75s-.48-1.18-.65-1.53l-1.23,3.26Zm-4,4.74,0-.58.56-.12a2.72,2.72,0,0,0,.79-.23A1.51,1.51,0,0,0,17,92.1l1.7-4.46,2-5.24h.91l.08.15L23.12,86c.33.74.63,1.45.89,2.15s.49,1.26.68,1.7c.11.26.27.65.46,1.18.11.29.26.65.47,1.08a1.43,1.43,0,0,0,.25.42,1,1,0,0,0,.5.16,3.35,3.35,0,0,1,.73.2,2.93,2.93,0,0,1,0,.41,1.58,1.58,0,0,1,0,.19q-.63,0-1.38-.06t-1.35-.06c-.44,0-.76,0-1,0L22,93.49l-.41,0c0-.2,0-.39,0-.57l.94-.2a1.71,1.71,0,0,0,.49-.17.27.27,0,0,0,.08-.19.66.66,0,0,0,0-.23l-.34-.82-.66-1.65-3.22,0c-.12.27-.36.93-.74,2a2.53,2.53,0,0,0-.16.6.36.36,0,0,0,.12.31,1.45,1.45,0,0,0,.74.23l.6.09c0,.21,0,.35,0,.42a1.36,1.36,0,0,1,0,.2c-.35,0-1.18,0-2.49-.14l-.35.06a8.43,8.43,0,0,1-1.19.1ZM0,93.52l0-.58a2.48,2.48,0,0,0,1.35-.43,2.27,2.27,0,0,0,.28-1.05l.11-3,.13-3.06c0-.18,0-.29,0-.33a3.74,3.74,0,0,0-.13-1.38,2.4,2.4,0,0,0-1.09-.36l-.37-.08c0-.14,0-.26,0-.36v-.26c.2,0,.45,0,.73,0l2.47.08.24,0h.38a2.93,2.93,0,0,1,.29.45c.21.41.48,1,.83,1.81l.09.23,1.31,2.85.14.3c.08.2.17.39.26.57l.28.61c.1.22.19.41.28.58a4.53,4.53,0,0,0,.23-.44c.23-.52.45-1,.66-1.43.37-.76.87-1.93,1.51-3.51.1-.25.27-.64.5-1.14s.36-.78.38-.81a.56.56,0,0,1,.31-.07h.26l1.05,0c.59,0,1.06,0,1.42,0l.61,0h.2c0,.08,0,.14,0,.18l0,.26a2.2,2.2,0,0,1,0,.23,4.27,4.27,0,0,0-1.29.35c-.23.11-.34.25-.34.42v.13l.14,2.58c0,.23.06,1.41.13,3.51,0,.48.06,1.08.11,1.8,0,.09,0,.16,0,.21a.35.35,0,0,0,.09.26s.56.2,1.51.49a1.72,1.72,0,0,1,0,.2c0,.12,0,.24,0,.36s-.53,0-1.14-.1-1.19-.1-1.72-.1c-.82,0-1.61,0-2.38.1l-.3,0,0-.58a4.54,4.54,0,0,1,.92-.23.71.71,0,0,0,.51-.23,1.93,1.93,0,0,0,.11-.89v-.49q0-.89-.06-2.46l-.14-3c0-.42,0-.71-.06-.88l-2.1,4.83c-.05.11-.13.27-.22.49l-.27.56c-.43,1-.73,1.84-.9,2.39,0,.14-.11.32-.2.55H6.5l-.45-1.29c-.14-.34-.37-.85-.7-1.54-.19-.39-.34-.72-.44-1a2.21,2.21,0,0,1-.11-.22l-.1-.22,0-.08-1.25-2.7L2.65,84.9l-.07,4-.06,2.59a1.38,1.38,0,0,0,.24.91,2.09,2.09,0,0,0,1,.47l.41.1v.62a10,10,0,0,1-1.05-.08,14.73,14.73,0,0,0-1.49-.06L0,93.52ZM59.61,74.38l.21,0v0a1.71,1.71,0,0,0,1.24.59,1.66,1.66,0,0,0,1.61-1.21c10.84-1.53,9.66-15,13.54-15.74-2.14-.19-3.38,1.49-4.59,3.76.09-3.95-1.81-7.95-2.12-9.81-.31-1.06,1.18-1.93,2.15-1.09A2.6,2.6,0,0,1,72,53.5c.8.21,1.68-1.65.46-2.89-1.27-1.55-3.85-1-3.87,1,.83,4.82,3.16,8.85,1.58,12.54a11.2,11.2,0,0,0-.41,1.12c1.5-6.45-7.13-15-7.39-17.66-.27-1.8,2.62-2.14,1.09.78a1.62,1.62,0,0,0,1.43-2,1.6,1.6,0,0,0-1.64-1.33,2.17,2.17,0,0,0-1.84,1.46c-.27,1.21.66,3.75,2.74,6.73,3.07,4.35,5.46,9.56,4.09,13-.93-6-5.65-5.5-8.19-9.56-1.8-2.92,3.39-4.44,1.61.15,2.45-.53,1.46-3.5-.4-3.88a2.36,2.36,0,0,0-2.61,1.89c-.31,1.06.4,3.23,3,5.31-4.32-.34-6.74,3.33-4.19,4.85,0-5.25,9.59-3.51,9.78,1.8-4.6-6.86-10,.58-5.78,2.23a2.07,2.07,0,0,0,2.36-.87c.07-.09-1.95.28-2.07-1.15A1.28,1.28,0,0,1,63,65.88c1.55.06,3.57,3.63-.62,6.37a1.78,1.78,0,0,0-1.28-.59A1.63,1.63,0,0,0,59.45,73c-7.05-.77-5.62-12.57-5.56-16.73.09-4.41-5.3-4.22-5.21-.62,0,3.29,2.48,15.06,6.45,17.2-5.58-.47-9.37-8.7-9.37-17.36,0-3.38-3-3.41-4.1-1.83,0,0,0,0,0-.06l-.06.06,0,0a2,2,0,0,0-.21.44c-.6,1.21-1.77,3.45-2.83,6V63.3a2.9,2.9,0,0,1,.09.6A56.22,56.22,0,0,1,40,70.42c.28,2.29-.87,2.88-1.4,3V74.6c3.88-.77,2.64-7.38.5-13a23.19,23.19,0,0,1,2.36-5c.74,5.25,4.47,19,18.13,17.78Zm-21,.22V73.45h0c-1.46-.12-1.49-2.1-1.36-3a37.81,37.81,0,0,1,1.05-6.52s.12-.34.28-.87c0,.09,0,.18.06.27V60.17l-.06.13a33.48,33.48,0,0,0-3.29-6.52c-1.06-1.58-4.07-1.52-4.07,1.83,0,8.69-3.81,16.91-9.4,17.35,4-2.11,6.48-13.91,6.48-17.2.07-3.6-5.33-3.78-5.24.62.09,4.19,1.52,16.14-5.65,16.77-.09,0-.12,0-.15,0a1.64,1.64,0,0,0-1.62-1.4,1.76,1.76,0,0,0-1.27.59c-4.19-2.73-2.18-6.3-.59-6.36A1.31,1.31,0,0,1,15,67.19c-.15,1.42-2.17,1-2.11,1.14a2.11,2.11,0,0,0,2.39.87C19.5,67.56,14.1,60.11,9.54,67c.15-5.31,9.77-7,9.75-1.8,2.54-1.52.15-5.19-4.17-4.84C17.64,58.25,18.35,56.07,18,55a2.3,2.3,0,0,0-2.57-1.89c-1.9.37-2.86,3.35-.44,3.88-1.74-4.6,3.45-3.08,1.61-.16-2.5,4.07-7.26,3.57-8.16,9.56-1.39-3.44,1-8.66,4.07-13,2.08-3,3-5.53,2.73-6.74a2.18,2.18,0,0,0-1.83-1.46,1.56,1.56,0,0,0-1.61,1.33,1.59,1.59,0,0,0,1.39,2c-1.52-2.92,1.37-2.58,1.12-.78C14.1,50.4,5.44,58.93,7,65.38c-.06-.15-.22-.65-.4-1.11-1.61-3.7.75-7.73,1.55-12.54,0-2-2.61-2.58-3.88-1-1.21,1.24-.31,3.1.5,2.88A2.6,2.6,0,0,1,5.07,51,1.28,1.28,0,0,1,7.21,52C6.87,53.9,5,57.91,5.07,61.85,3.89,59.58,2.61,57.91.51,58.09c3.88.75,2.67,14.22,13.5,15.74A1.74,1.74,0,0,0,15.62,75a1.8,1.8,0,0,0,1.28-.59v0c.09,0,.21,0,.3.06C31.36,75.81,34.93,61.2,35.52,56.29a19.59,19.59,0,0,1,2.67,5.31c-2.21,5.74-3.91,12.44.37,13a.1.1,0,0,0,.06,0Zm10.5-24.52A2.08,2.08,0,0,1,51.23,48a2.1,2.1,0,1,1-2.11,2.08Zm-8-.62a2.11,2.11,0,1,1,2.1,2.08,2.11,2.11,0,0,1-2.1-2.08Zm-9.47.22a2.1,2.1,0,1,1,2.11,2.11,2.09,2.09,0,0,1-2.11-2.11Zm-7.82.5a2.11,2.11,0,1,1,2.11,2.11A2.1,2.1,0,0,1,23.82,50.18Z"/><path class="cls-2" d="M163,25.5H144.56v.23c3.79,1.51,3.33,7,3.33,10.44V64.7c0,3.4.46,9-3.4,10.37v.22h15.06v-.22c-4-2.27-3.94-5.3-3.94-9.54V31.4a30.91,30.91,0,0,1,5.3-.45c6.05,0,10.74,2.65,10.74,9.31,0,7.26-7,11.28-13.54,11.65A12.64,12.64,0,0,0,163.63,53c8.55,0,16.65-5.53,16.65-14.23C180.28,30.27,172.79,25.5,163,25.5Zm64.45.23-.08-.23H212.94v.23c3.79,1.44,3.34,7,3.34,10.36V58.87c0,2.73.07,4.62-1.59,6.89a13.38,13.38,0,0,1-11.05,5.3c-7.8,0-12-4.69-12-14.76V36.09c0-3.4-.46-8.92,3.32-10.36V25.5H180.56v.23c3.86,1.44,3.33,7,3.33,10.36V56.3c0,5.45-.16,10.52,3.86,14.91,3.4,3.71,8.7,5.29,13.69,5.29,5.3,0,11.5-1.81,14.84-6.2v5H227.4v-.22c-3.86-1.44-3.41-7-3.41-10.37V36.17C224,32.69,223.54,27.17,227.4,25.73Zm44.24,39.72c-4.76,2.73-10.44,4.77-16.12,4.77-11.65,0-19.22-9.91-19.22-21S243.57,30.57,254,30.57a26.29,26.29,0,0,1,14,4.32V26.18a61,61,0,0,0-13.77-1.89c-15.52,0-26.57,10.37-26.57,26,0,16.19,11.05,26.18,28.91,26.18A26.79,26.79,0,0,0,268,74.23l3.86-8.78Z"/><path class="cls-2" d="M304.68,64.7,293.79,51c6.2-1.45,12-6.67,12-13.33,0-6.88-5.53-12.18-15.67-12.18h-18v.23c3.86,1.44,3.33,7,3.33,10.44V64.7c0,3.4.53,9-3.33,10.37v.22h14.45v-.22c-3.85-1.37-3.4-6.89-3.4-10.37V30.8a40.86,40.86,0,0,1,5.15-.61c5.07-.22,9.76,2.95,9.76,8.41,0,7.11-7,9.9-13.09,10.81l7,10.67,9.23,11.43c2.27,2.8,4.77,3.78,8.78,3.78h7A53.19,53.19,0,0,1,304.68,64.7Zm20.74-28.08c0-5.22,5.45-6.88,9.76-6.88a17.29,17.29,0,0,1,11.89,4.76V26a38,38,0,0,0-11.28-1.67c-9.23,0-19,3.63-19,13.16,0,16,26,13.93,26,25.74,0,5.3-6.51,7.87-10.82,7.87a26.21,26.21,0,0,1-16.57-6.28l2.19,9.45a39.16,39.16,0,0,0,13.55,2.27c11.8,0,20.27-7.57,20.27-15.66C351.45,46.84,325.42,47,325.42,36.62Z"/></g></g></svg>