<?xml version="1.0" encoding="utf-8"?>
<!-- Generator: Adobe Illustrator 26.0.1, SVG Export Plug-In . SVG Version: 6.00 Build 0)  -->
<svg version="1.1" id="Camada_1" xmlns="http://www.w3.org/2000/svg" xmlns:xlink="http://www.w3.org/1999/xlink" x="0px" y="0px"
	 viewBox="0 0 206.9 52.3" style="enable-background:new 0 0 206.9 52.3;" xml:space="preserve">
<style type="text/css">
	.st0{fill:#FFFFFF;}
</style>
<path class="st0" d="M18.5,1.2H0.1v0.2c3.8,1.5,3.3,7,3.3,10.4v28.5c0,3.4,0.5,9-3.4,10.4V51h15.1v-0.2c-4-2.3-3.9-5.3-3.9-9.5V7.1
	c1.8-0.3,3.5-0.5,5.3-0.5c6.1,0,10.7,2.6,10.7,9.3c0,7.3-7,11.3-13.5,11.6c1.7,0.8,3.6,1.1,5.5,1.1c8.6,0,16.6-5.5,16.6-14.2
	C35.8,6,28.3,1.2,18.5,1.2z M83,1.4l-0.1-0.2H68.4v0.2c3.8,1.4,3.3,7,3.3,10.4v22.8c0,2.7,0.1,4.6-1.6,6.9
	c-2.6,3.4-6.7,5.4-11.1,5.3c-7.8,0-12-4.7-12-14.8V11.8c0-3.4-0.5-8.9,3.3-10.4V1.2H36.1v0.2c3.9,1.4,3.3,7,3.3,10.4V32
	c0,5.5-0.2,10.5,3.9,14.9c3.4,3.7,8.7,5.3,13.7,5.3c5.3,0,11.5-1.8,14.8-6.2v5h11.1v-0.2c-3.9-1.4-3.4-7-3.4-10.4V11.9
	C79.5,8.4,79,2.9,83,1.4L83,1.4z M127.2,41.2c-4.8,2.7-10.4,4.8-16.1,4.8c-11.6,0-19.2-9.9-19.2-21s7.2-18.6,17.6-18.6
	c5,0.1,9.8,1.6,14,4.3V1.9c-4.5-1.2-9.1-1.8-13.8-1.9C94.2,0,83.2,10.4,83.2,26c0,16.2,11.1,26.2,28.9,26.2
	c3.9,0.1,7.8-0.7,11.4-2.2l3.9-8.8L127.2,41.2z"/>
<path class="st0" d="M160.2,40.4l-10.9-13.7c6.2-1.5,12-6.7,12-13.3c0-6.9-5.5-12.2-15.7-12.2h-18v0.2c3.9,1.4,3.3,7,3.3,10.4v28.5
	c0,3.4,0.5,9-3.3,10.4V51h14.5v-0.2c-3.9-1.4-3.4-6.9-3.4-10.4V6.5c1.7-0.3,3.4-0.5,5.1-0.6c5.1-0.2,9.8,3,9.8,8.4
	c0,7.1-7,9.9-13.1,10.8l7,10.7l9.2,11.4c2.3,2.8,4.8,3.8,8.8,3.8h7C167.9,48.1,163.7,44.6,160.2,40.4z M180.9,12.3
	c0-5.2,5.5-6.9,9.8-6.9c4.4,0,8.7,1.7,11.9,4.8V1.7c-3.7-1.1-7.5-1.7-11.3-1.7c-9.2,0-19,3.6-19,13.2c0,16,26,13.9,26,25.7
	c0,5.3-6.5,7.9-10.8,7.9c-6.1-0.1-11.9-2.3-16.6-6.3l2.2,9.4c4.3,1.5,8.9,2.3,13.5,2.3c11.8,0,20.3-7.6,20.3-15.7
	C207,22.5,180.9,22.7,180.9,12.3L180.9,12.3z"/>
</svg>
